<svg width="466" height="107" viewBox="0 0 466 107" fill="none" xmlns="http://www.w3.org/2000/svg">
<path d="M141.549 43.0779V50.8945H120.097V43.0779H141.549ZM124.57 76.4286V41.3843C124.57 38.8078 125.055 36.6727 126.024 34.9791C126.994 33.271 128.34 31.9972 130.063 31.1577C131.786 30.3036 133.776 29.8766 136.034 29.8766C137.51 29.8766 138.9 29.9924 140.203 30.224C141.52 30.4412 142.497 30.6366 143.134 30.8103L141.44 38.5834C141.05 38.4531 140.572 38.3446 140.007 38.2577C139.457 38.1709 138.936 38.1274 138.444 38.1274C137.199 38.1274 136.345 38.4025 135.882 38.9525C135.419 39.5026 135.187 40.2553 135.187 41.2106V76.4286H124.57Z" fill="#25056F"/>
<path d="M161.172 77.0582C157.683 77.0582 154.673 76.3707 152.139 74.9955C149.621 73.6059 147.681 71.6301 146.32 69.068C144.974 66.4914 144.301 63.4299 144.301 59.8835C144.301 56.4385 144.981 53.4276 146.342 50.8511C147.703 48.26 149.621 46.248 152.096 44.8149C154.571 43.3674 157.488 42.6437 160.846 42.6437C163.22 42.6437 165.391 43.0128 167.36 43.751C169.329 44.4892 171.029 45.5821 172.462 47.0296C173.895 48.4771 175.01 50.2648 175.806 52.3927C176.602 54.506 177 56.9306 177 59.6664V62.3153H148.014V56.1489H167.121C167.107 55.0199 166.839 54.0139 166.318 53.1309C165.797 52.2479 165.08 51.5603 164.168 51.0682C163.271 50.5616 162.236 50.3082 161.063 50.3082C159.876 50.3082 158.812 50.576 157.872 51.1116C156.931 51.6327 156.185 52.3492 155.635 53.2612C155.085 54.1586 154.796 55.1791 154.767 56.3226V62.5976C154.767 63.9583 155.034 65.1525 155.57 66.1802C156.106 67.1935 156.866 67.9823 157.85 68.5469C158.834 69.1114 160.007 69.3937 161.367 69.3937C162.308 69.3937 163.162 69.2634 163.929 69.0028C164.697 68.7423 165.355 68.3587 165.905 67.8521C166.455 67.3454 166.868 66.723 167.143 65.9848L176.892 66.267C176.487 68.4528 175.596 70.3563 174.221 71.9775C172.861 73.5842 171.073 74.8363 168.858 75.7338C166.643 76.6168 164.081 77.0582 161.172 77.0582Z" fill="#25056F"/>
<path d="M198.013 77.0582C194.524 77.0582 191.513 76.3707 188.98 74.9955C186.462 73.6059 184.522 71.6301 183.161 69.068C181.815 66.4914 181.142 63.4299 181.142 59.8835C181.142 56.4385 181.822 53.4276 183.183 50.8511C184.544 48.26 186.462 46.248 188.937 44.8149C191.412 43.3674 194.329 42.6437 197.687 42.6437C200.061 42.6437 202.232 43.0128 204.201 43.751C206.17 44.4892 207.87 45.5821 209.303 47.0296C210.736 48.4771 211.851 50.2648 212.647 52.3927C213.443 54.506 213.841 56.9306 213.841 59.6664V62.3153H184.855V56.1489H203.962C203.948 55.0199 203.68 54.0139 203.159 53.1309C202.638 52.2479 201.921 51.5603 201.009 51.0682C200.112 50.5616 199.077 50.3082 197.904 50.3082C196.717 50.3082 195.653 50.576 194.712 51.1116C193.772 51.6327 193.026 52.3492 192.476 53.2612C191.926 54.1586 191.637 55.1791 191.608 56.3226V62.5976C191.608 63.9583 191.875 65.1525 192.411 66.1802C192.947 67.1935 193.706 67.9823 194.691 68.5469C195.675 69.1114 196.848 69.3937 198.208 69.3937C199.149 69.3937 200.003 69.2634 200.77 69.0028C201.538 68.7423 202.196 68.3587 202.746 67.8521C203.296 67.3454 203.709 66.723 203.984 65.9848L213.733 66.267C213.327 68.4528 212.437 70.3563 211.062 71.9775C209.701 73.5842 207.914 74.8363 205.699 75.7338C203.484 76.6168 200.922 77.0582 198.013 77.0582Z" fill="#25056F"/>
<path d="M231.445 76.9063C228.984 76.9063 226.748 76.2693 224.736 74.9955C222.724 73.7217 221.117 71.811 219.915 69.2634C218.714 66.7158 218.113 63.553 218.113 59.775C218.113 55.8522 218.736 52.6243 219.981 50.0911C221.225 47.558 222.854 45.6834 224.866 44.4675C226.892 43.2516 229.071 42.6437 231.401 42.6437C233.153 42.6437 234.651 42.9477 235.896 43.5556C237.141 44.1491 238.169 44.9163 238.979 45.8571C239.79 46.798 240.405 47.7751 240.825 48.7884H241.042V31.961H251.659V76.4286H241.15V71.0221H240.825C240.376 72.0499 239.739 73.0124 238.914 73.9099C238.089 74.8074 237.054 75.5311 235.809 76.0812C234.579 76.6312 233.124 76.9063 231.445 76.9063ZM235.136 68.6337C236.424 68.6337 237.524 68.2719 238.436 67.5481C239.348 66.8099 240.05 65.7749 240.542 64.4432C241.035 63.1115 241.281 61.5482 241.281 59.7532C241.281 57.9294 241.035 56.3588 240.542 55.0416C240.065 53.7244 239.363 52.7111 238.436 52.0018C237.524 51.2925 236.424 50.9379 235.136 50.9379C233.819 50.9379 232.704 51.2998 231.792 52.0235C230.88 52.7473 230.186 53.7678 229.708 55.085C229.245 56.4023 229.013 57.9583 229.013 59.7532C229.013 61.5482 229.252 63.1115 229.73 64.4432C230.207 65.7749 230.895 66.8099 231.792 67.5481C232.704 68.2719 233.819 68.6337 235.136 68.6337Z" fill="#25056F"/>
<path d="M258.374 76.4286V31.961H268.992V48.7884H269.209C269.643 47.7751 270.258 46.798 271.054 45.8571C271.865 44.9163 272.893 44.1491 274.137 43.5556C275.397 42.9477 276.902 42.6437 278.654 42.6437C280.97 42.6437 283.134 43.2516 285.146 44.4675C287.172 45.6834 288.808 47.558 290.053 50.0911C291.298 52.6243 291.92 55.8522 291.92 59.775C291.92 63.553 291.319 66.7158 290.118 69.2634C288.931 71.811 287.324 73.7217 285.298 74.9955C283.286 76.2693 281.049 76.9063 278.589 76.9063C276.909 76.9063 275.455 76.6312 274.224 76.0812C272.994 75.5311 271.959 74.8074 271.119 73.9099C270.294 73.0124 269.657 72.0499 269.209 71.0221H268.883V76.4286H258.374ZM268.774 59.7532C268.774 61.5482 269.013 63.1115 269.491 64.4432C269.983 65.7749 270.685 66.8099 271.597 67.5481C272.523 68.2719 273.631 68.6337 274.919 68.6337C276.222 68.6337 277.329 68.2719 278.241 67.5481C279.153 66.8099 279.841 65.7749 280.304 64.4432C280.781 63.1115 281.02 61.5482 281.02 59.7532C281.02 57.9583 280.781 56.4023 280.304 55.085C279.841 53.7678 279.153 52.7473 278.241 52.0235C277.344 51.2998 276.236 50.9379 274.919 50.9379C273.616 50.9379 272.509 51.2925 271.597 52.0018C270.685 52.7111 269.983 53.7244 269.491 55.0416C269.013 56.3588 268.774 57.9294 268.774 59.7532Z" fill="#25056F"/>
<path d="M306.886 76.9931C304.758 76.9931 302.869 76.6385 301.219 75.9292C299.583 75.2054 298.287 74.1198 297.332 72.6723C296.391 71.2103 295.921 69.3792 295.921 67.179C295.921 65.3262 296.246 63.7629 296.898 62.489C297.549 61.2152 298.447 60.1803 299.59 59.3841C300.734 58.588 302.051 57.9873 303.542 57.582C305.033 57.1622 306.625 56.8799 308.319 56.7352C310.215 56.5615 311.742 56.3806 312.9 56.1924C314.058 55.9897 314.898 55.7075 315.419 55.3456C315.954 54.9692 316.222 54.4409 316.222 53.7606V53.652C316.222 52.5374 315.838 51.6761 315.071 51.0682C314.304 50.4602 313.269 50.1563 311.966 50.1563C310.562 50.1563 309.433 50.4602 308.579 51.0682C307.725 51.6761 307.182 52.5157 306.951 53.5869L297.158 53.2395C297.448 51.2129 298.193 49.4035 299.395 47.8113C300.611 46.2045 302.275 44.9452 304.389 44.0333C306.516 43.1069 309.071 42.6437 312.053 42.6437C314.181 42.6437 316.142 42.897 317.937 43.4036C319.732 43.8958 321.296 44.6195 322.627 45.5749C323.959 46.5158 324.987 47.6738 325.71 49.0489C326.449 50.424 326.818 51.9946 326.818 53.7606V76.4286H316.83V71.7821H316.569C315.976 72.9111 315.216 73.8665 314.29 74.6481C313.378 75.4298 312.299 76.016 311.054 76.4069C309.824 76.7977 308.434 76.9931 306.886 76.9931ZM310.164 70.0451C311.308 70.0451 312.335 69.8135 313.247 69.3502C314.174 68.887 314.912 68.2501 315.462 67.4395C316.012 66.6145 316.287 65.6591 316.287 64.5735V61.4034C315.983 61.5626 315.614 61.7074 315.18 61.8377C314.76 61.9679 314.297 62.091 313.79 62.2068C313.284 62.3226 312.762 62.4239 312.227 62.5108C311.691 62.5976 311.177 62.6772 310.685 62.7496C309.686 62.9088 308.832 63.1549 308.123 63.4878C307.428 63.8208 306.893 64.255 306.516 64.7906C306.155 65.3117 305.974 65.9341 305.974 66.6579C305.974 67.758 306.364 68.5975 307.146 69.1765C307.942 69.7556 308.948 70.0451 310.164 70.0451Z" fill="#25056F"/>
<path d="M348.878 77.0582C345.36 77.0582 342.342 76.3345 339.824 74.887C337.319 73.4395 335.394 71.4274 334.048 68.8509C332.702 66.2598 332.029 63.2635 332.029 59.8618C332.029 56.4457 332.702 53.4493 334.048 50.8728C335.409 48.2817 337.341 46.2624 339.845 44.8149C342.364 43.3674 345.368 42.6437 348.856 42.6437C351.939 42.6437 354.624 43.201 356.912 44.3155C359.213 45.4301 361.008 47.0079 362.296 49.0489C363.599 51.0754 364.287 53.4566 364.359 56.1924H354.436C354.234 54.4843 353.655 53.1454 352.699 52.1755C351.758 51.2057 350.528 50.7208 349.008 50.7208C347.778 50.7208 346.699 51.0682 345.773 51.763C344.847 52.4433 344.123 53.4566 343.602 54.8028C343.095 56.1345 342.842 57.7846 342.842 59.7532C342.842 61.7219 343.095 63.3865 343.602 64.7472C344.123 66.0933 344.847 67.1138 345.773 67.8086C346.699 68.489 347.778 68.8291 349.008 68.8291C349.992 68.8291 350.861 68.6193 351.614 68.1995C352.381 67.7797 353.01 67.1645 353.503 66.3539C353.995 65.5288 354.306 64.53 354.436 63.3576H364.359C364.258 66.1078 363.57 68.5107 362.296 70.5662C361.037 72.6216 359.264 74.2211 356.977 75.3647C354.704 76.4937 352.004 77.0582 348.878 77.0582Z" fill="#25056F"/>
<path d="M379.368 67.6784L379.411 55.0199H380.888L390.268 43.0779H402.296L388.357 60.1875H385.556L379.368 67.6784ZM369.793 76.4286V31.961H380.41V76.4286H369.793ZM390.506 76.4286L381.778 62.5759L388.769 55.0416L402.774 76.4286H390.506Z" fill="#25056F"/>
<path d="M416.844 31.961V76.4286H406.096V31.961H416.844Z" fill="#25056F"/>
<path d="M440.592 60.4481H449.277L452.968 65.1597L457.81 70.7181L465.258 79.9026H455.53L450.319 73.6711L447.236 69.2417L440.592 60.4481ZM465.562 54.1948C465.562 59.0874 464.621 63.2345 462.739 66.6362C460.857 70.0378 458.31 72.6216 455.096 74.3876C451.897 76.1535 448.307 77.0365 444.327 77.0365C440.332 77.0365 436.735 76.1463 433.536 74.3659C430.337 72.5854 427.796 70.0016 425.914 66.6144C424.047 63.2128 423.113 59.0729 423.113 54.1948C423.113 49.3022 424.047 45.1551 425.914 41.7535C427.796 38.3518 430.337 35.768 433.536 34.002C436.735 32.2361 440.332 31.3531 444.327 31.3531C448.307 31.3531 451.897 32.2361 455.096 34.002C458.31 35.768 460.857 38.3518 462.739 41.7535C464.621 45.1551 465.562 49.3022 465.562 54.1948ZM454.575 54.1948C454.575 51.2998 454.163 48.8535 453.337 46.8559C452.527 44.8584 451.354 43.3457 449.82 42.318C448.3 41.2902 446.469 40.7764 444.327 40.7764C442.199 40.7764 440.368 41.2902 438.833 42.318C437.299 43.3457 436.119 44.8584 435.294 46.8559C434.484 48.8535 434.078 51.2998 434.078 54.1948C434.078 57.0898 434.484 59.5361 435.294 61.5337C436.119 63.5313 437.299 65.0439 438.833 66.0716C440.368 67.0994 442.199 67.6132 444.327 67.6132C446.469 67.6132 448.3 67.0994 449.82 66.0716C451.354 65.0439 452.527 63.5313 453.337 61.5337C454.163 59.5361 454.575 57.0898 454.575 54.1948Z" fill="#25056F"/>
<path d="M53.5 0C46.4744 0 39.5172 1.38397 33.0263 4.07242C26.5354 6.76118 20.6379 10.7018 15.6697 15.6697C10.7018 20.6379 6.76118 26.5354 4.07242 33.0263C1.38397 39.5172 0 46.4744 0 53.5C0 60.5256 1.38397 67.4828 4.07242 73.9737C6.76118 80.4646 10.7018 86.3621 15.6697 91.3303C20.6379 96.2982 26.5354 100.239 33.0263 102.928C39.5172 105.616 46.4744 107 53.5 107V80.25C49.987 80.25 46.5086 79.5582 43.2632 78.2136C40.0177 76.8694 37.0688 74.8991 34.5848 72.4152C32.1009 69.9312 30.1306 66.9823 28.7864 63.7368C27.4418 60.4914 26.75 57.013 26.75 53.5C26.75 49.987 27.4418 46.5086 28.7864 43.2632C30.1306 40.0177 32.1009 37.0688 34.5848 34.5848C37.0688 32.1009 40.0177 30.1306 43.2632 28.7864C46.5086 27.4418 49.987 26.75 53.5 26.75V0Z" fill="#0F52FF"/>
<path d="M53.5003 71.3332C63.3495 71.3332 71.3336 63.3492 71.3336 53.5C71.3336 43.6508 63.3495 35.6668 53.5003 35.6668C43.6511 35.6668 35.6671 43.6508 35.6671 53.5C35.6671 63.3492 43.6511 71.3332 53.5003 71.3332Z" fill="#0F52FF"/>
<path d="M0 53.5C0 60.5256 1.38397 67.4828 4.07242 73.9737C6.76118 80.4646 10.7018 86.3621 15.6697 91.3303C20.6379 96.2982 26.5354 100.239 33.0263 102.928C39.5172 105.616 46.4744 107 53.5 107C60.5256 107 67.4828 105.616 73.9737 102.928C80.4646 100.239 86.3621 96.2982 91.3303 91.3303C96.2982 86.3621 100.239 80.4646 102.928 73.9737C105.616 67.4828 107 60.5256 107 53.5H80.25C80.25 57.013 79.5582 60.4914 78.2136 63.7368C76.8694 66.9823 74.8991 69.9312 72.4152 72.4152C69.9312 74.8991 66.9823 76.8694 63.7368 78.2136C60.4914 79.5582 57.013 80.25 53.5 80.25C49.987 80.25 46.5086 79.5582 43.2632 78.2136C40.0177 76.8694 37.0688 74.8991 34.5848 72.4152C32.1009 69.9312 30.1306 66.9823 28.7864 63.7368C27.4418 60.4914 26.75 57.013 26.75 53.5H0Z" fill="#25056F"/>
<path d="M71.3335 53.5C71.3335 48.7703 69.4546 44.2344 66.1104 40.8899C62.7659 37.5454 58.23 35.6665 53.5003 35.6665C48.7706 35.6665 44.2347 37.5454 40.8902 40.8899C37.5457 44.2344 35.6667 48.7703 35.6667 53.5H53.5003H71.3335Z" fill="#25056F"/>
</svg>
